<svg width="13" height="18" viewBox="0 0 13 18" fill="none" xmlns="http://www.w3.org/2000/svg">
<path d="M3.33462 5.33693V4.00554C3.33462 2.1043 4.7462 0.553223 6.4996 0.553223C8.253 0.553223 9.66458 2.1043 9.66458 4.00554V5.33693H11.8522C11.9524 5.33701 12.0489 5.37702 12.1222 5.44891C12.1955 5.5208 12.2402 5.61923 12.2472 5.72437L12.9992 17.3741C13.0058 17.4842 12.9708 17.5925 12.9018 17.6755C12.8328 17.7586 12.7354 17.8096 12.6308 17.8174H0.394989C0.290232 17.8174 0.189765 17.7737 0.11569 17.6958C0.0416147 17.6179 0 17.5122 0 17.4021V17.3741L0.751999 5.72437C0.758737 5.61899 0.80327 5.52024 0.876593 5.44807C0.949917 5.3759 1.04656 5.3357 1.14699 5.3356L3.33462 5.33693ZM4.52212 5.33693H8.47835V4.00554C8.47835 2.78198 7.59216 1.80074 6.4996 1.80074C5.40705 1.80074 4.52212 2.78198 4.52212 4.00554V5.33693ZM1.24194 16.5713H11.7573L11.1141 6.58578H1.88633L1.24194 16.5713Z" fill="#8B8B8C"/>
</svg>
