<svg width="21" height="17" viewBox="0 0 21 17" fill="none" xmlns="http://www.w3.org/2000/svg">
<path d="M13.6886 6.72982L10.853 9.55443C10.6832 9.50946 10.5085 9.48558 10.3328 9.48331C9.79177 9.48331 9.27289 9.69741 8.89032 10.0785C8.50774 10.4596 8.29282 10.9765 8.29282 11.5154C8.29509 11.6904 8.31907 11.8645 8.36422 12.0336L7.56862 12.8261C7.47302 12.9206 7.39713 13.0329 7.34535 13.1568C7.29357 13.2806 7.26691 13.4134 7.26691 13.5475C7.26691 13.6816 7.29357 13.8144 7.34535 13.9383C7.39713 14.0621 7.47302 14.1744 7.56862 14.2689C7.66344 14.3641 7.77625 14.4397 7.90055 14.4913C8.02485 14.5429 8.15816 14.5695 8.29282 14.5695C8.42747 14.5695 8.56079 14.5429 8.68508 14.4913C8.80938 14.4397 8.92219 14.3641 9.01701 14.2689L9.81261 13.4764C9.98241 13.5214 10.1571 13.5452 10.3328 13.5475C10.8738 13.5475 11.3927 13.3334 11.7753 12.9523C12.1579 12.5712 12.3728 12.0544 12.3728 11.5154C12.3705 11.3404 12.3465 11.1664 12.3014 10.9972L15.137 8.17261C15.3291 7.98128 15.437 7.72179 15.437 7.45121C15.437 7.18064 15.3291 6.92114 15.137 6.72982C14.9449 6.53849 14.6844 6.43101 14.4128 6.43101C14.1412 6.43101 13.8807 6.53849 13.6886 6.72982ZM10.3328 0.338867C8.99333 0.338867 7.66697 0.601676 6.42945 1.11229C5.19193 1.6229 4.0675 2.37132 3.12034 3.31481C1.20748 5.22027 0.132844 7.80463 0.132844 10.4994C0.127821 12.5117 0.728239 14.4794 1.85664 16.1486C2.00813 16.3723 2.24261 16.5268 2.5085 16.5783C2.77439 16.6297 3.0499 16.5738 3.27443 16.4229C3.49897 16.272 3.65412 16.0384 3.70577 15.7736C3.75742 15.5087 3.70132 15.2343 3.54983 15.0106C2.72824 13.7868 2.25574 12.3637 2.18279 10.8933C2.10983 9.42287 2.43915 7.9603 3.1356 6.66177C3.83204 5.36324 4.86945 4.27751 6.13705 3.52051C7.40466 2.76351 8.85486 2.36366 10.3328 2.36366C11.8108 2.36366 13.261 2.76351 14.5286 3.52051C15.7962 4.27751 16.8336 5.36324 17.53 6.66177C18.2265 7.9603 18.5558 9.42287 18.4828 10.8933C18.4099 12.3637 17.9374 13.7868 17.1158 15.0106C17.0406 15.1213 16.9881 15.2457 16.9613 15.3766C16.9344 15.5076 16.9338 15.6425 16.9593 15.7737C16.9849 15.9049 17.0362 16.0298 17.1103 16.1412C17.1844 16.2526 17.2799 16.3483 17.3912 16.4229C17.56 16.536 17.759 16.5961 17.9624 16.5957C18.1295 16.5959 18.294 16.5553 18.4417 16.4773C18.5893 16.3994 18.7154 16.2865 18.809 16.1486C19.9374 14.4794 20.5378 12.5117 20.5328 10.4994C20.5328 7.80463 19.4581 5.22027 17.5453 3.31481C15.6324 1.40934 13.038 0.338867 10.3328 0.338867Z" fill="black"/>
</svg>
