<svg width="17" height="16" viewBox="0 0 17 16" fill="none" xmlns="http://www.w3.org/2000/svg">
<path d="M15.6228 4.81339L10.2895 0.610415C9.80061 0.217322 9.16768 0 8.51175 0C7.85581 0 7.22289 0.217322 6.73398 0.610415L1.40069 4.81339C1.11835 5.04037 0.893045 5.31883 0.739776 5.6302C0.586508 5.94158 0.508792 6.27874 0.511803 6.61923V13.6029C0.511803 14.2386 0.792753 14.8483 1.29285 15.2979C1.79294 15.7474 2.47121 16 3.17845 16H13.845C14.5523 16 15.2306 15.7474 15.7306 15.2979C16.2307 14.8483 16.5117 14.2386 16.5117 13.6029V6.61123C16.5134 6.27209 16.4351 5.93647 16.2819 5.62656C16.1287 5.31664 15.904 5.03948 15.6228 4.81339ZM10.2895 14.4019H6.73398V10.4067C6.73398 10.1948 6.82763 9.99153 6.99433 9.84168C7.16103 9.69183 7.38712 9.60765 7.62286 9.60765H9.40063C9.63637 9.60765 9.86247 9.69183 10.0292 9.84168C10.1959 9.99153 10.2895 10.1948 10.2895 10.4067V14.4019ZM14.7339 13.6029C14.7339 13.8148 14.6403 14.018 14.4736 14.1679C14.3069 14.3177 14.0808 14.4019 13.845 14.4019H12.0673V10.4067C12.0673 9.77093 11.7863 9.16121 11.2862 8.71167C10.7861 8.26212 10.1079 8.00956 9.40063 8.00956H7.62286C6.91562 8.00956 6.23735 8.26212 5.73726 8.71167C5.23717 9.16121 4.95622 9.77093 4.95622 10.4067V14.4019H3.17845C2.9427 14.4019 2.71661 14.3177 2.54992 14.1679C2.38322 14.018 2.28957 13.8148 2.28957 13.6029V6.61123C2.28973 6.49778 2.31676 6.38566 2.36887 6.28233C2.42098 6.179 2.49697 6.08683 2.59179 6.01195L7.92508 1.81697C8.08729 1.68887 8.29583 1.61822 8.51175 1.61822C8.72766 1.61822 8.9362 1.68887 9.09841 1.81697L14.4317 6.01195C14.5265 6.08683 14.6025 6.179 14.6546 6.28233C14.7067 6.38566 14.7338 6.49778 14.7339 6.61123V13.6029Z" fill="#8B8B8C"/>
</svg>
