<svg width="18" height="15" viewBox="0 0 18 15" fill="none" xmlns="http://www.w3.org/2000/svg">
<path d="M16.8113 7.37925C16.586 7.37925 16.3698 7.45581 16.2105 7.5921C16.0511 7.72838 15.9616 7.91322 15.9616 8.10596V12.4662C15.9616 12.659 15.8721 12.8438 15.7127 12.9801C15.5533 13.1164 15.3372 13.1929 15.1118 13.1929H3.21528C2.98991 13.1929 2.77377 13.1164 2.61441 12.9801C2.45505 12.8438 2.36552 12.659 2.36552 12.4662V2.29226C2.36552 2.09952 2.45505 1.91468 2.61441 1.7784C2.77377 1.64211 2.98991 1.56555 3.21528 1.56555H8.3138C8.53917 1.56555 8.75531 1.48898 8.91467 1.3527C9.07403 1.21641 9.16355 1.03157 9.16355 0.838836C9.16355 0.6461 9.07403 0.461258 8.91467 0.324973C8.75531 0.188688 8.53917 0.112124 8.3138 0.112124H3.21528C2.53917 0.112124 1.89076 0.341816 1.41268 0.750671C0.934598 1.15953 0.666016 1.71405 0.666016 2.29226V12.4662C0.666016 13.0444 0.934598 13.599 1.41268 14.0078C1.89076 14.4167 2.53917 14.6464 3.21528 14.6464H15.1118C15.7879 14.6464 16.4363 14.4167 16.9144 14.0078C17.3925 13.599 17.6611 13.0444 17.6611 12.4662V8.10596C17.6611 7.91322 17.5716 7.72838 17.4122 7.5921C17.2528 7.45581 17.0367 7.37925 16.8113 7.37925ZM4.06503 7.93155V11.0128C4.06503 11.2055 4.15456 11.3904 4.31392 11.5267C4.47328 11.663 4.68942 11.7395 4.91478 11.7395H8.51774C8.62957 11.7401 8.74043 11.7217 8.84397 11.6856C8.9475 11.6494 9.04166 11.5961 9.12107 11.5288L15.0014 6.49266L17.4147 4.4724C17.4943 4.40484 17.5575 4.32447 17.6007 4.23591C17.6438 4.14735 17.666 4.05237 17.666 3.95643C17.666 3.8605 17.6438 3.76551 17.6007 3.67696C17.5575 3.5884 17.4943 3.50802 17.4147 3.44047L13.8117 0.32287C13.7327 0.254757 13.6387 0.200694 13.5352 0.163799C13.4316 0.126905 13.3206 0.10791 13.2084 0.10791C13.0962 0.10791 12.9851 0.126905 12.8816 0.163799C12.778 0.200694 12.6841 0.254757 12.6051 0.32287L10.2087 2.37947L4.31146 7.41558C4.2327 7.48349 4.17039 7.56402 4.12811 7.65256C4.08582 7.7411 4.06438 7.83591 4.06503 7.93155ZM13.2084 1.8635L15.6132 3.9201L14.4065 4.95203L12.0017 2.89543L13.2084 1.8635ZM5.76454 8.2295L10.8036 3.9201L13.2084 5.97669L8.16934 10.2861H5.76454V8.2295Z" fill="black"/>
</svg>
