<svg width="18" height="16" viewBox="0 0 18 16" fill="none" xmlns="http://www.w3.org/2000/svg">
<path d="M6.8049 13.1319C6.52471 13.1319 6.25082 13.2016 6.01785 13.3322C5.78488 13.4627 5.6033 13.6483 5.49608 13.8654C5.38885 14.0826 5.3608 14.3215 5.41546 14.552C5.47012 14.7825 5.60505 14.9942 5.80317 15.1604C6.00129 15.3265 6.25372 15.4397 6.52853 15.4856C6.80333 15.5314 7.08818 15.5079 7.34704 15.4179C7.6059 15.328 7.82716 15.1757 7.98282 14.9803C8.13849 14.7849 8.22157 14.5552 8.22157 14.3202C8.22157 14.005 8.07232 13.7028 7.80664 13.48C7.54096 13.2571 7.18063 13.1319 6.8049 13.1319ZM16.7216 10.7555H5.38824C5.13776 10.7555 4.89753 10.672 4.72041 10.5235C4.5433 10.3749 4.44379 10.1734 4.44379 9.96333C4.44379 9.75324 4.5433 9.55175 4.72041 9.40319C4.89753 9.25464 5.13776 9.17118 5.38824 9.17118H13.4077C14.0229 9.16951 14.621 9.00067 15.1122 8.68994C15.6034 8.37921 15.9613 7.94333 16.1322 7.44763L17.6296 3.05173C17.6698 2.93384 17.6768 2.80973 17.65 2.68919C17.6233 2.56864 17.5636 2.45494 17.4755 2.35704C17.3875 2.25915 17.2736 2.17972 17.1428 2.12502C17.0119 2.07032 16.8678 2.04184 16.7216 2.04182H5.1418C4.94629 1.58028 4.58588 1.18052 4.10967 0.897016C3.63347 0.613508 3.06463 0.460039 2.48066 0.45752H1.61046C1.35998 0.45752 1.11975 0.540978 0.942637 0.689535C0.765519 0.838092 0.666016 1.03958 0.666016 1.24967C0.666016 1.45976 0.765519 1.66125 0.942637 1.80981C1.11975 1.95836 1.35998 2.04182 1.61046 2.04182H2.48066C2.68568 2.04242 2.88496 2.09871 3.04865 2.20226C3.21234 2.3058 3.33163 2.45104 3.38867 2.61621L3.53555 3.04773L3.53578 3.05173L5.08526 7.60041C4.36423 7.66547 3.7004 7.95993 3.23043 8.42317C2.76047 8.8864 2.52016 9.48315 2.55899 10.0905C2.59782 10.6979 2.91283 11.2697 3.43915 11.6881C3.96548 12.1065 4.66305 12.3398 5.38824 12.3398H16.7216C16.9721 12.3398 17.2123 12.2563 17.3894 12.1078C17.5665 11.9592 17.666 11.7577 17.666 11.5476C17.666 11.3375 17.5665 11.1361 17.3894 10.9875C17.2123 10.8389 16.9721 10.7555 16.7216 10.7555ZM15.4695 3.62612L14.3162 7.0121C14.2592 7.17741 14.1399 7.32278 13.9761 7.4264C13.8123 7.53003 13.6129 7.58634 13.4077 7.58688H7.04516L6.80439 6.88011L5.69652 3.62612H15.4695ZM14.3605 13.1319C14.0803 13.1319 13.8064 13.2016 13.5734 13.3322C13.3404 13.4627 13.1589 13.6483 13.0516 13.8654C12.9444 14.0826 12.9164 14.3215 12.971 14.552C13.0257 14.7825 13.1606 14.9942 13.3587 15.1604C13.5569 15.3265 13.8093 15.4397 14.0841 15.4856C14.3589 15.5314 14.6437 15.5079 14.9026 15.4179C15.1615 15.328 15.3827 15.1757 15.5384 14.9803C15.694 14.7849 15.7771 14.5552 15.7771 14.3202C15.7771 14.005 15.6279 13.7028 15.3622 13.48C15.0965 13.2571 14.7362 13.1319 14.3605 13.1319Z" fill="black"/>
</svg>
