<svg width="16" height="16" viewBox="0 0 16 16" fill="none" xmlns="http://www.w3.org/2000/svg">
<path d="M4.44526 4.90137V3.75819C4.44526 2.12574 6.04505 0.793945 8.03223 0.793945C10.0194 0.793945 11.6192 2.12574 11.6192 3.75819V4.90137H14.0985C14.2121 4.90143 14.3215 4.93579 14.4045 4.99752C14.4876 5.05924 14.5382 5.14375 14.5462 5.23403L15.3985 15.2368C15.4059 15.3313 15.3663 15.4243 15.2881 15.4956C15.2099 15.5669 15.0995 15.6107 14.9809 15.6175H1.11367C0.994945 15.6175 0.881082 15.5799 0.797131 15.513C0.713179 15.4461 0.666016 15.3554 0.666016 15.2608V15.2368L1.51828 5.23403C1.52592 5.14355 1.57639 5.05876 1.65949 4.99679C1.74259 4.93482 1.85212 4.90031 1.96594 4.90022L4.44526 4.90137ZM5.79109 4.90137H10.2748V3.75819C10.2748 2.70762 9.27046 1.8651 8.03223 1.8651C6.79401 1.8651 5.79109 2.70762 5.79109 3.75819V4.90137ZM2.07355 14.5475H13.9909L13.262 5.97366H2.80385L2.07355 14.5475Z" fill="black"/>
</svg>
