<svg width="18" height="15" viewBox="0 0 18 15" fill="none" xmlns="http://www.w3.org/2000/svg">
<path d="M5.74399 8.03199C4.90654 7.45382 4.29528 6.66097 3.99524 5.76376C3.69521 4.86654 3.72132 3.90957 4.06994 3.02598C4.41857 2.14239 5.07237 1.37612 5.94039 0.833783C6.80841 0.291443 7.84749 0 8.91306 0C9.97863 0 11.0177 0.291443 11.8857 0.833783C12.7537 1.37612 13.4076 2.14239 13.7562 3.02598C14.1048 3.90957 14.1309 4.86654 13.8309 5.76376C13.5308 6.66097 12.9196 7.45382 12.0821 8.03199C13.5171 8.53648 14.7692 9.37323 15.7049 10.453C16.6406 11.5328 17.2248 12.8152 17.3952 14.1635C17.4076 14.2619 17.3977 14.3615 17.3662 14.4566C17.3346 14.5517 17.2821 14.6404 17.2115 14.7176C17.0689 14.8737 16.8615 14.9736 16.635 14.9955C16.4085 15.0173 16.1813 14.9593 16.0035 14.8342C15.8257 14.7091 15.7118 14.5272 15.6868 14.3284C15.4993 12.8631 14.7031 11.5098 13.4504 10.5271C12.1977 9.54445 10.5763 9.0012 8.89598 9.0012C7.21568 9.0012 5.59429 9.54445 4.34158 10.5271C3.08888 11.5098 2.29268 12.8631 2.10511 14.3284C2.08188 14.5125 1.98173 14.6826 1.82399 14.8058C1.66624 14.929 1.46208 14.9966 1.25091 14.9955H1.15695C0.933033 14.9729 0.728376 14.8735 0.587574 14.7191C0.446774 14.5646 0.381241 14.3676 0.405256 14.171C0.576529 12.8189 1.16389 11.5332 2.10438 10.4517C3.04487 9.37029 4.30303 8.53381 5.74399 8.03199ZM8.91306 7.4998C9.58884 7.4998 10.2494 7.32395 10.8113 6.9945C11.3732 6.66504 11.8112 6.19678 12.0698 5.64892C12.3284 5.10105 12.396 4.4982 12.2642 3.91659C12.1324 3.33499 11.8069 2.80074 11.3291 2.38143C10.8512 1.96211 10.2424 1.67656 9.57964 1.56087C8.91685 1.44518 8.22985 1.50455 7.60551 1.73149C6.98117 1.95842 6.44755 2.34271 6.0721 2.83578C5.69666 3.32884 5.49627 3.90852 5.49627 4.50153C5.49627 5.29672 5.85625 6.05934 6.49703 6.62162C7.1378 7.18391 8.00687 7.4998 8.91306 7.4998Z" fill="black"/>
</svg>
